<svg viewBox="0 0 560 290" xmlns="http://www.w3.org/2000/svg">
    <defs>
        <linearGradient id="layer1-v1" x1="0%" y1="0%" x2="100%" y2="0%">
            <stop offset="0%" style="stop-color:#ffffff;stop-opacity:1" />
            <stop offset="100%" style="stop-color:#ffffff;stop-opacity:1" />
        </linearGradient>
        <linearGradient id="layer2-v1" x1="0%" y1="0%" x2="100%" y2="0%">
            <stop offset="0%" style="stop-color:#ffffff;stop-opacity:1" />
            <stop offset="100%" style="stop-color:#ffffff;stop-opacity:1" />
        </linearGradient>
        <linearGradient id="layer3-v1" x1="0%" y1="0%" x2="100%" y2="0%">
            <stop offset="0%" style="stop-color:#ffffff;stop-opacity:1" />
            <stop offset="100%" style="stop-color:#ffffff;stop-opacity:1" />
        </linearGradient>
        <linearGradient id="layer4-v1" x1="0%" y1="0%" x2="100%" y2="0%">
            <stop offset="0%" style="stop-color:#ffffff;stop-opacity:1" />
            <stop offset="100%" style="stop-color:#ffffff;stop-opacity:1" />
        </linearGradient>
        <filter id="shadow-v1">
            <feDropShadow dx="0" dy="4" stdDeviation="8" flood-color="#000" flood-opacity="0.12"/>
        </filter>
        <style>
            .title-v1 { font-family: 'Times New Roman', serif; font-size: 32px; font-weight: 700; fill: #1e3a8a; }
            .subtitle-v1 { font-family: 'Times New Roman', serif; font-size: 14px; fill: #4b5563; }
            .layer-title-v1 { font-family: 'Arial', sans-serif; font-size: 16px; font-weight: 600; fill: #1e3a8a; }
            .layer-desc-v1 { font-family: 'Arial', sans-serif; font-size: 11px; fill: #4b5563; opacity: 0.9; }
            .component-v1 { font-family: 'Courier New', monospace; font-size: 9px; fill: #1e3a8a; text-anchor: middle; font-weight: 500; }
        </style>
    </defs>
    <!-- Remove empty background rectangles -->
    <defs>
        <pattern id="grid-v1" width="30" height="30" patternUnits="userSpaceOnUse">
            <path d="M 30 0 L 0 0 0 30" fill="none" stroke="#e5e7eb" stroke-width="0.5" opacity="0.4"/>
        </pattern>
    </defs>
    <!-- Layer 1 -->
    <g transform="translate(0, 0)">
        <rect width="560" height="55" fill="url(#layer1-v1)" stroke="#1e3a8a" stroke-width="2" rx="10" filter="url(#shadow-v1)"/>
        <text x="25" y="22" class="layer-title-v1">🎯 Orchestration Layer</text>
        <text x="25" y="43" class="layer-desc-v1">Benchmark Runner &amp; Flow Control &amp; Configuration Management</text>
        <rect x="420" y="12" width="120" height="25" fill="rgba(255,255,255,0.8)" stroke="#1e3a8a" stroke-width="1" rx="5"/>
        <text x="480" y="28" class="layer-desc-v1" text-anchor="middle">Core Engine</text>
    </g>
    <!-- Layer 2 -->
    <g transform="translate(0, 65)">
        <rect width="560" height="65" fill="url(#layer2-v1)" stroke="#1e40af" stroke-width="2" rx="10" filter="url(#shadow-v1)"/>
        <text x="25" y="22" class="layer-title-v1">🤖 Agent Systems Layer</text>
        <text x="25" y="45" class="layer-desc-v1">Multi-Agent Orchestration &amp; Registry &amp; Lifecycle Management</text>
        <rect x="330" y="8" width="65" height="18" fill="rgba(255,255,255,0.9)" stroke="#1e40af" stroke-width="1" rx="3"/>
        <text x="362.5" y="19" class="component-v1">MetaGPT</text>
        <rect x="400" y="8" width="85" height="18" fill="rgba(255,255,255,0.9)" stroke="#1e40af" stroke-width="1" rx="3"/>
        <text x="442.5" y="19" class="component-v1">EvoAgent</text>
        <rect x="490" y="8" width="45" height="18" fill="rgba(255,255,255,0.9)" stroke="#1e40af" stroke-width="1" rx="3"/>
        <text x="512.5" y="19" class="component-v1">Swarm</text>
        <rect x="335" y="35" width="65" height="18" fill="rgba(255,255,255,0.9)" stroke="#1e40af" stroke-width="1" rx="3"/>
        <text x="367.5" y="46" class="component-v1">AgentVerse</text>
        <rect x="405" y="35" width="65" height="18" fill="rgba(255,255,255,0.9)" stroke="#1e40af" stroke-width="1" rx="3"/>
        <text x="437.5" y="46" class="component-v1">ChatEval</text>
        <rect x="475" y="35" width="65" height="18" fill="rgba(255,255,255,0.9)" stroke="#1e40af" stroke-width="1" rx="3"/>
        <text x="507.5" y="46" class="component-v1">...</text>
    </g>
    <!-- Layer 3 -->
    <g transform="translate(0, 140)">
        <rect width="560" height="65" fill="url(#layer3-v1)" stroke="#2563eb" stroke-width="2" rx="10" filter="url(#shadow-v1)"/>
        <text x="25" y="25" class="layer-title-v1">🔧 Tools &amp; Evaluators Layer</text>
        <text x="25" y="45" class="layer-desc-v1">Pluggable Tools &amp; Benchmarks &amp; Assessment Framework</text>
        <rect x="330" y="10" width="35" height="16" fill="rgba(255,255,255,0.9)" stroke="#2563eb" stroke-width="1" rx="2"/>
        <text x="347.5" y="20" class="component-v1">MATH</text>
        <rect x="370" y="10" width="35" height="16" fill="rgba(255,255,255,0.9)" stroke="#2563eb" stroke-width="1" rx="2"/>
        <text x="387.5" y="20" class="component-v1">AIME</text>
        <rect x="410" y="10" width="65" height="16" fill="rgba(255,255,255,0.9)" stroke="#2563eb" stroke-width="1" rx="2"/>
        <text x="442.5" y="20" class="component-v1">HumanEval</text>
        <rect x="480" y="10" width="35" height="16" fill="rgba(255,255,255,0.9)" stroke="#2563eb" stroke-width="1" rx="2"/>
        <text x="497.5" y="20" class="component-v1">MBPP</text>
        <rect x="330" y="35" width="35" height="16" fill="rgba(255,255,255,0.9)" stroke="#2563eb" stroke-width="1" rx="2"/>
        <text x="347.5" y="45" class="component-v1">DROP</text>
        <rect x="370" y="35" width="35" height="16" fill="rgba(255,255,255,0.9)" stroke="#2563eb" stroke-width="1" rx="2"/>
        <text x="387.5" y="45" class="component-v1">BBH</text>
        <rect x="410" y="35" width="65" height="16" fill="rgba(255,255,255,0.9)" stroke="#2563eb" stroke-width="1" rx="2"/>
        <text x="442.5" y="45" class="component-v1">MMLU-Pro</text>
        <rect x="480" y="35" width="45" height="16" fill="rgba(255,255,255,0.9)" stroke="#2563eb" stroke-width="1" rx="2"/>
        <text x="502.5" y="45" class="component-v1">...</text>
    </g>
    <!-- Layer 4 -->
    <g transform="translate(0, 215)">
        <rect width="560" height="55" fill="url(#layer4-v1)" stroke="#3b82f6" stroke-width="2" rx="10" filter="url(#shadow-v1)"/>
        <text x="25" y="22" class="layer-title-v1">📈 Visualization &amp; Output Layer</text>
        <text x="25" y="42" class="layer-desc-v1">Interactive Dashboards &amp; Metrics &amp; Reports &amp; Real-time Debugging</text>
        <rect x="360" y="8" width="40" height="18" fill="rgba(255,255,255,0.9)" stroke="#3b82f6" stroke-width="1" rx="3"/>
        <text x="380" y="19" class="component-v1">Charts</text>
        <rect x="405" y="8" width="45" height="18" fill="rgba(255,255,255,0.9)" stroke="#3b82f6" stroke-width="1" rx="3"/>
        <text x="428" y="19" class="component-v1">Metrics</text>
        <rect x="455" y="8" width="35" height="18" fill="rgba(255,255,255,0.9)" stroke="#3b82f6" stroke-width="1" rx="3"/>
        <text x="473.5" y="19" class="component-v1">Debug</text>
        <rect x="360" y="30" width="45" height="18" fill="rgba(255,255,255,0.9)" stroke="#3b82f6" stroke-width="1" rx="3"/>
        <text x="382.5" y="41" class="component-v1">Reports</text>
        <rect x="410" y="30" width="55" height="18" fill="rgba(255,255,255,0.9)" stroke="#3b82f6" stroke-width="1" rx="3"/>
        <text x="437.5" y="41" class="component-v1">Dashboard</text>
        <rect x="470" y="30" width="45" height="18" fill="rgba(255,255,255,0.9)" stroke="#3b82f6" stroke-width="1" rx="3"/>
        <text x="492.5" y="41" class="component-v1">...</text>
    </g>
</svg>
